<svg width="28" height="38" viewBox="0 0 28 38" fill="none" xmlns="http://www.w3.org/2000/svg">
<path fill-rule="evenodd" clip-rule="evenodd" d="M0.777778 0.38294C0.348223 0.38294 0 0.731161 0 1.16071V31.0366V34.5921V35.0365C0 36.4975 1.37069 37.6841 3.06993 37.703L3.11111 37.7033H24.8889L24.9301 37.703C26.6293 37.6841 28 36.4975 28 35.0365V34.5921V31.0366V1.16217C28 0.996835 27.9473 0.835809 27.8496 0.702451C27.5957 0.355962 27.109 0.2809 26.7625 0.534795L24.492 2.19858L21.9028 0.304819C21.3525 -0.0976434 20.6043 -0.0949236 20.057 0.311536L17.516 2.19858L14.9071 0.298196C14.3592 -0.100882 13.616 -0.0992494 13.0698 0.302228L10.4902 2.19858L7.9281 0.3085C7.37954 -0.0961633 6.63143 -0.0965372 6.08247 0.307573L3.51367 2.19858L1.23702 0.532991C1.10375 0.435491 0.942905 0.38294 0.777778 0.38294ZM24.8885 34.981H24.8886V31.8143C24.8886 31.6565 24.7563 31.5243 24.5785 31.4898L24.4863 31.481H2.72184L2.72185 34.5921C2.72185 34.7762 2.84977 34.9304 3.02157 34.9707L3.11074 34.981H24.8885ZM24.8889 28.3699C25.0205 28.3699 25.1501 28.3769 25.2774 28.3905L25.2773 8.51105C25.1178 8.41797 24.9557 8.37019 24.7916 8.37019C22.4673 8.37019 20.5663 17.2092 20.4252 28.3699H24.8889ZM16.9081 28.3699L16.8868 27.2048C16.6331 16.6002 14.7844 8.37019 12.5417 8.37019C10.3902 8.37019 8.60075 16.5832 8.23595 27.4006L8.20732 28.3699H16.9081ZM4.72757 28.3699H3.11111C2.97927 28.3699 2.84935 28.3769 2.72182 28.3906L2.7217 4.80183L2.79671 4.82494L3.06105 4.88304C3.77154 5.0025 4.51921 4.83835 5.12713 4.39083L7.00259 3.00983L8.87385 4.38921L9.08453 4.53006C10.0184 5.09353 11.2103 5.04762 12.1023 4.39188L13.9933 3.00206L15.9129 4.39893L16.1242 4.53838C17.0605 5.09574 18.2508 5.04343 19.1387 4.38403L20.9886 3.00983L22.8845 4.39578L23.0947 4.53516C23.7397 4.92111 24.5064 5.01733 25.212 4.8239L25.2773 4.80339L25.2773 6.63875C25.1166 6.60785 24.9547 6.59217 24.7916 6.59217C22.3172 6.59217 20.1098 9.94174 18.6666 15.178C17.2235 9.94174 15.0161 6.59217 12.5417 6.59217L12.3422 6.60001C8.41779 6.90862 5.20412 16.296 4.72757 28.3699Z" fill="#292929"/>
</svg>
